<svg width="165" height="11" viewBox="0 0 165 11" fill="none" xmlns="http://www.w3.org/2000/svg">
<rect width="1" height="1" transform="matrix(-1 0 0 1 160 5)" fill="white"/>
<rect width="1" height="1" transform="matrix(-1 0 0 1 149 5)" fill="white"/>
<rect width="1" height="1" transform="matrix(-1 0 0 1 149 4)" fill="white"/>
<rect width="1" height="1" transform="matrix(-1 0 0 1 149 6)" fill="white"/>
<rect width="1" height="1" transform="matrix(-1 0 0 1 150 5)" fill="white"/>
<rect width="1" height="1" transform="matrix(-1 0 0 1 148 5)" fill="white"/>
<rect width="1" height="1" transform="matrix(-1 0 0 1 136 5)" fill="white"/>
<rect width="1" height="1" transform="matrix(-1 0 0 1 140 5)" fill="white"/>
<rect width="1" height="1" transform="matrix(-1 0 0 1 138 4)" fill="white"/>
<rect width="1" height="1" transform="matrix(-1 0 0 1 138 3)" fill="white"/>
<rect width="1" height="1" transform="matrix(-1 0 0 1 138 7)" fill="white"/>
<rect width="1" height="1" transform="matrix(-1 0 0 1 138 6)" fill="white"/>
<rect width="1" height="1" transform="matrix(-1 0 0 1 139 5)" fill="white"/>
<rect width="1" height="1" transform="matrix(-1 0 0 1 138 5)" fill="white"/>
<rect width="1" height="1" transform="matrix(-1 0 0 1 137 5)" fill="white"/>
<rect width="1" height="1" transform="matrix(-1 0 0 1 125 5)" fill="white"/>
<rect width="1" height="1" transform="matrix(-1 0 0 1 124 5)" fill="white"/>
<rect width="1" height="1" transform="matrix(-1 0 0 1 129 5)" fill="white"/>
<rect width="1" height="1" transform="matrix(-1 0 0 1 127 4)" fill="white"/>
<rect width="1" height="1" transform="matrix(-1 0 0 1 127 3)" fill="white"/>
<rect width="1" height="1" transform="matrix(-1 0 0 1 127 2)" fill="white"/>
<rect width="1" height="1" transform="matrix(-1 0 0 1 127 7)" fill="white"/>
<rect width="1" height="1" transform="matrix(-1 0 0 1 127 8)" fill="white"/>
<rect width="1" height="1" transform="matrix(-1 0 0 1 127 6)" fill="white"/>
<rect width="1" height="1" transform="matrix(-1 0 0 1 128 6)" fill="white"/>
<rect width="1" height="1" transform="matrix(-1 0 0 1 126 6)" fill="white"/>
<rect width="1" height="1" transform="matrix(-1 0 0 1 128 5)" fill="white"/>
<rect width="1" height="1" transform="matrix(-1 0 0 1 128 4)" fill="white"/>
<rect width="1" height="1" transform="matrix(-1 0 0 1 130 5)" fill="white"/>
<rect width="1" height="1" transform="matrix(-1 0 0 1 126 5)" fill="white"/>
<rect width="1" height="1" transform="matrix(-1 0 0 1 126 4)" fill="white"/>
<rect width="1" height="1" transform="matrix(-1 0 0 1 114 5)" fill="white"/>
<rect width="1" height="1" transform="matrix(-1 0 0 1 113 5)" fill="white"/>
<rect width="1" height="1" transform="matrix(-1 0 0 1 118 5)" fill="white"/>
<rect width="1" height="1" transform="matrix(-1 0 0 1 116 1)" fill="white"/>
<rect width="1" height="1" transform="matrix(-1 0 0 1 116 3)" fill="white"/>
<rect width="1" height="1" transform="matrix(-1 0 0 1 116 2)" fill="white"/>
<rect width="1" height="1" transform="matrix(-1 0 0 1 116 7)" fill="white"/>
<rect width="1" height="1" transform="matrix(-1 0 0 1 116 8)" fill="white"/>
<rect width="1" height="1" transform="matrix(-1 0 0 1 116 9)" fill="white"/>
<rect width="1" height="1" transform="matrix(-1 0 0 1 118 7)" fill="white"/>
<rect width="1" height="1" transform="matrix(-1 0 0 1 117 6)" fill="white"/>
<rect width="1" height="1" transform="matrix(-1 0 0 1 114 7)" fill="white"/>
<rect width="1" height="1" transform="matrix(-1 0 0 1 115 6)" fill="white"/>
<rect width="1" height="1" transform="matrix(-1 0 0 1 120 5)" fill="white"/>
<rect width="1" height="1" transform="matrix(-1 0 0 1 118 3)" fill="white"/>
<rect width="1" height="1" transform="matrix(-1 0 0 1 117 4)" fill="white"/>
<rect width="1" height="1" transform="matrix(-1 0 0 1 119 5)" fill="white"/>
<rect width="1" height="1" transform="matrix(-1 0 0 1 112 5)" fill="white"/>
<rect width="1" height="1" transform="matrix(-1 0 0 1 114 3)" fill="white"/>
<rect width="1" height="1" transform="matrix(-1 0 0 1 115 4)" fill="white"/>
<rect width="1" height="1" transform="matrix(-1 0 0 1 100 5)" fill="white"/>
<rect width="1" height="1" transform="matrix(-1 0 0 1 102 5)" fill="white"/>
<rect width="1" height="1" transform="matrix(-1 0 0 1 110 5)" fill="white"/>
<rect width="1" height="1" transform="matrix(-1 0 0 1 105 1)" fill="white"/>
<rect width="1" height="1" transform="matrix(-1 0 0 1 105 0)" fill="white"/>
<rect width="1" height="1" transform="matrix(-1 0 0 1 105 2)" fill="white"/>
<rect width="1" height="1" transform="matrix(-1 0 0 1 105 10)" fill="white"/>
<rect width="1" height="1" transform="matrix(-1 0 0 1 105 8)" fill="white"/>
<rect width="1" height="1" transform="matrix(-1 0 0 1 105 9)" fill="white"/>
<rect width="1" height="1" transform="matrix(-1 0 0 1 107 7)" fill="white"/>
<rect width="1" height="1" transform="matrix(-1 0 0 1 106 6)" fill="white"/>
<rect width="1" height="1" transform="matrix(-1 0 0 1 108 8)" fill="white"/>
<rect width="1" height="1" transform="matrix(-1 0 0 1 103 7)" fill="white"/>
<rect width="1" height="1" transform="matrix(-1 0 0 1 104 6)" fill="white"/>
<rect width="1" height="1" transform="matrix(-1 0 0 1 102 8)" fill="white"/>
<rect width="1" height="1" transform="matrix(-1 0 0 1 109 5)" fill="white"/>
<rect width="1" height="1" transform="matrix(-1 0 0 1 107 3)" fill="white"/>
<rect width="1" height="1" transform="matrix(-1 0 0 1 106 4)" fill="white"/>
<rect width="1" height="1" transform="matrix(-1 0 0 1 108 2)" fill="white"/>
<rect width="1" height="1" transform="matrix(-1 0 0 1 108 5)" fill="white"/>
<rect width="1" height="1" transform="matrix(-1 0 0 1 101 5)" fill="white"/>
<rect width="1" height="1" transform="matrix(-1 0 0 1 103 3)" fill="white"/>
<rect width="1" height="1" transform="matrix(-1 0 0 1 104 4)" fill="white"/>
<rect width="1" height="1" transform="matrix(-1 0 0 1 102 2)" fill="white"/>
<rect width="1" height="1" transform="matrix(-1 0 0 1 99 5)" fill="white"/>
<rect width="1" height="1" transform="matrix(-1 0 0 1 98 5)" fill="white"/>
<rect width="1" height="1" transform="matrix(-1 0 0 1 94 3)" fill="white"/>
<rect width="1" height="1" transform="matrix(-1 0 0 1 96 3)" fill="white"/>
<rect width="1" height="1" transform="matrix(-1 0 0 1 97 2)" fill="white"/>
<rect width="1" height="1" transform="matrix(-1 0 0 1 91 8)" fill="white"/>
<rect width="1" height="1" transform="matrix(-1 0 0 1 90 9)" fill="white"/>
<rect width="1" height="1" transform="matrix(-1 0 0 1 98 1)" fill="white"/>
<rect width="1" height="1" transform="matrix(-1 0 0 1 92 7)" fill="white"/>
<rect width="1" height="1" transform="matrix(-1 0 0 1 92 3)" fill="white"/>
<rect width="1" height="1" transform="matrix(-1 0 0 1 91 2)" fill="white"/>
<rect width="1" height="1" transform="matrix(-1 0 0 1 90 1)" fill="white"/>
<rect width="1" height="1" transform="matrix(-1 0 0 1 98 9)" fill="white"/>
<rect width="1" height="1" transform="matrix(-1 0 0 1 97 8)" fill="white"/>
<rect width="1" height="1" transform="matrix(-1 0 0 1 96 7)" fill="white"/>
<rect width="1" height="1" transform="matrix(-1 0 0 1 94 9)" fill="white"/>
<rect width="1" height="1" transform="matrix(-1 0 0 1 94 10)" fill="white"/>
<rect width="1" height="1" transform="matrix(-1 0 0 1 94 2)" fill="white"/>
<rect width="1" height="1" transform="matrix(-1 0 0 1 94 1)" fill="white"/>
<rect width="1" height="1" transform="matrix(-1 0 0 1 94 0)" fill="white"/>
<rect width="1" height="1" transform="matrix(-1 0 0 1 94 8)" fill="white"/>
<rect width="1" height="1" transform="matrix(-1 0 0 1 94 7)" fill="white"/>
<rect width="1" height="1" transform="matrix(-1 0 0 1 97 5)" fill="white"/>
<rect width="1" height="1" transform="matrix(-1 0 0 1 96 5)" fill="white"/>
<rect width="1" height="1" transform="matrix(-1 0 0 1 92 5)" fill="white"/>
<rect width="1" height="1" transform="matrix(-1 0 0 1 91 5)" fill="white"/>
<rect width="1" height="1" transform="matrix(-1 0 0 1 89 5)" fill="white"/>
<rect width="1" height="1" transform="matrix(-1 0 0 1 90 5)" fill="white"/>
<rect width="1" height="1" transform="matrix(-1 0 0 1 88 5)" fill="white"/>
<rect width="1" height="1" transform="matrix(-1 0 0 1 87 5)" fill="white"/>
<rect width="1" height="1" transform="matrix(-1 0 0 1 83 3)" fill="white"/>
<rect width="1" height="1" transform="matrix(-1 0 0 1 85 3)" fill="white"/>
<rect width="1" height="1" transform="matrix(-1 0 0 1 86 2)" fill="white"/>
<rect width="1" height="1" transform="matrix(-1 0 0 1 80 8)" fill="white"/>
<rect width="1" height="1" transform="matrix(-1 0 0 1 79 9)" fill="white"/>
<rect width="1" height="1" transform="matrix(-1 0 0 1 87 1)" fill="white"/>
<rect width="1" height="1" transform="matrix(-1 0 0 1 81 7)" fill="white"/>
<rect width="1" height="1" transform="matrix(-1 0 0 1 81 3)" fill="white"/>
<rect width="1" height="1" transform="matrix(-1 0 0 1 80 2)" fill="white"/>
<rect width="1" height="1" transform="matrix(-1 0 0 1 79 1)" fill="white"/>
<rect width="1" height="1" transform="matrix(-1 0 0 1 87 9)" fill="white"/>
<rect width="1" height="1" transform="matrix(-1 0 0 1 86 8)" fill="white"/>
<rect width="1" height="1" transform="matrix(-1 0 0 1 85 7)" fill="white"/>
<rect width="1" height="1" transform="matrix(-1 0 0 1 83 9)" fill="white"/>
<rect width="1" height="1" transform="matrix(-1 0 0 1 83 10)" fill="white"/>
<rect width="1" height="1" transform="matrix(-1 0 0 1 83 2)" fill="white"/>
<rect width="1" height="1" transform="matrix(-1 0 0 1 83 1)" fill="white"/>
<rect width="1" height="1" transform="matrix(-1 0 0 1 83 0)" fill="white"/>
<rect width="1" height="1" transform="matrix(-1 0 0 1 83 8)" fill="white"/>
<rect width="1" height="1" transform="matrix(-1 0 0 1 83 7)" fill="white"/>
<rect width="1" height="1" transform="matrix(-1 0 0 1 86 5)" fill="white"/>
<rect width="1" height="1" transform="matrix(-1 0 0 1 85 5)" fill="white"/>
<rect width="1" height="1" transform="matrix(-1 0 0 1 81 5)" fill="white"/>
<rect width="1" height="1" transform="matrix(-1 0 0 1 80 5)" fill="white"/>
<rect width="1" height="1" transform="matrix(-1 0 0 1 78 5)" fill="white"/>
<rect width="1" height="1" transform="matrix(-1 0 0 1 79 5)" fill="white"/>
<rect width="1" height="1" transform="matrix(-1 0 0 1 77 5)" fill="white"/>
<rect width="1" height="1" transform="matrix(-1 0 0 1 76 5)" fill="white"/>
<rect width="1" height="1" transform="matrix(-1 0 0 1 72 3)" fill="white"/>
<rect width="1" height="1" transform="matrix(-1 0 0 1 74 3)" fill="white"/>
<rect width="1" height="1" transform="matrix(-1 0 0 1 75 2)" fill="white"/>
<rect width="1" height="1" transform="matrix(-1 0 0 1 69 8)" fill="white"/>
<rect width="1" height="1" transform="matrix(-1 0 0 1 68 9)" fill="white"/>
<rect width="1" height="1" transform="matrix(-1 0 0 1 76 1)" fill="white"/>
<rect width="1" height="1" transform="matrix(-1 0 0 1 70 7)" fill="white"/>
<rect width="1" height="1" transform="matrix(-1 0 0 1 70 3)" fill="white"/>
<rect width="1" height="1" transform="matrix(-1 0 0 1 69 2)" fill="white"/>
<rect width="1" height="1" transform="matrix(-1 0 0 1 68 1)" fill="white"/>
<rect width="1" height="1" transform="matrix(-1 0 0 1 76 9)" fill="white"/>
<rect width="1" height="1" transform="matrix(-1 0 0 1 75 8)" fill="white"/>
<rect width="1" height="1" transform="matrix(-1 0 0 1 74 7)" fill="white"/>
<rect width="1" height="1" transform="matrix(-1 0 0 1 72 9)" fill="white"/>
<rect width="1" height="1" transform="matrix(-1 0 0 1 72 10)" fill="white"/>
<rect width="1" height="1" transform="matrix(-1 0 0 1 72 2)" fill="white"/>
<rect width="1" height="1" transform="matrix(-1 0 0 1 72 1)" fill="white"/>
<rect width="1" height="1" transform="matrix(-1 0 0 1 72 0)" fill="white"/>
<rect width="1" height="1" transform="matrix(-1 0 0 1 72 8)" fill="white"/>
<rect width="1" height="1" transform="matrix(-1 0 0 1 72 7)" fill="white"/>
<rect width="1" height="1" transform="matrix(-1 0 0 1 75 5)" fill="white"/>
<rect width="1" height="1" transform="matrix(-1 0 0 1 74 5)" fill="white"/>
<rect width="1" height="1" transform="matrix(-1 0 0 1 70 5)" fill="white"/>
<rect width="1" height="1" transform="matrix(-1 0 0 1 69 5)" fill="white"/>
<rect width="1" height="1" transform="matrix(-1 0 0 1 67 5)" fill="white"/>
<rect width="1" height="1" transform="matrix(-1 0 0 1 68 5)" fill="white"/>
<rect width="1" height="1" transform="matrix(-1 0 0 1 66 5)" fill="white"/>
<rect width="1" height="1" transform="matrix(-1 0 0 1 65 5)" fill="white"/>
<rect width="1" height="1" transform="matrix(-1 0 0 1 61 3)" fill="white"/>
<rect width="1" height="1" transform="matrix(-1 0 0 1 63 3)" fill="white"/>
<rect width="1" height="1" transform="matrix(-1 0 0 1 64 2)" fill="white"/>
<rect width="1" height="1" transform="matrix(-1 0 0 1 58 8)" fill="white"/>
<rect width="1" height="1" transform="matrix(-1 0 0 1 57 9)" fill="white"/>
<rect width="1" height="1" transform="matrix(-1 0 0 1 65 1)" fill="white"/>
<rect width="1" height="1" transform="matrix(-1 0 0 1 59 7)" fill="white"/>
<rect width="1" height="1" transform="matrix(-1 0 0 1 59 3)" fill="white"/>
<rect width="1" height="1" transform="matrix(-1 0 0 1 58 2)" fill="white"/>
<rect width="1" height="1" transform="matrix(-1 0 0 1 57 1)" fill="white"/>
<rect width="1" height="1" transform="matrix(-1 0 0 1 65 9)" fill="white"/>
<rect width="1" height="1" transform="matrix(-1 0 0 1 64 8)" fill="white"/>
<rect width="1" height="1" transform="matrix(-1 0 0 1 63 7)" fill="white"/>
<rect width="1" height="1" transform="matrix(-1 0 0 1 61 9)" fill="white"/>
<rect width="1" height="1" transform="matrix(-1 0 0 1 61 10)" fill="white"/>
<rect width="1" height="1" transform="matrix(-1 0 0 1 61 2)" fill="white"/>
<rect width="1" height="1" transform="matrix(-1 0 0 1 61 1)" fill="white"/>
<rect width="1" height="1" transform="matrix(-1 0 0 1 61 0)" fill="white"/>
<rect width="1" height="1" transform="matrix(-1 0 0 1 61 8)" fill="white"/>
<rect width="1" height="1" transform="matrix(-1 0 0 1 61 7)" fill="white"/>
<rect width="1" height="1" transform="matrix(-1 0 0 1 64 5)" fill="white"/>
<rect width="1" height="1" transform="matrix(-1 0 0 1 63 5)" fill="white"/>
<rect width="1" height="1" transform="matrix(-1 0 0 1 59 5)" fill="white"/>
<rect width="1" height="1" transform="matrix(-1 0 0 1 58 5)" fill="white"/>
<rect width="1" height="1" transform="matrix(-1 0 0 1 56 5)" fill="white"/>
<rect width="1" height="1" transform="matrix(-1 0 0 1 57 5)" fill="white"/>
<rect width="1" height="1" transform="matrix(-1 0 0 1 55 5)" fill="white"/>
<rect width="1" height="1" transform="matrix(-1 0 0 1 54 5)" fill="white"/>
<rect width="1" height="1" transform="matrix(-1 0 0 1 50 3)" fill="white"/>
<rect width="1" height="1" transform="matrix(-1 0 0 1 52 3)" fill="white"/>
<rect width="1" height="1" transform="matrix(-1 0 0 1 53 2)" fill="white"/>
<rect width="1" height="1" transform="matrix(-1 0 0 1 47 8)" fill="white"/>
<rect width="1" height="1" transform="matrix(-1 0 0 1 46 9)" fill="white"/>
<rect width="1" height="1" transform="matrix(-1 0 0 1 54 1)" fill="white"/>
<rect width="1" height="1" transform="matrix(-1 0 0 1 48 7)" fill="white"/>
<rect width="1" height="1" transform="matrix(-1 0 0 1 48 3)" fill="white"/>
<rect width="1" height="1" transform="matrix(-1 0 0 1 47 2)" fill="white"/>
<rect width="1" height="1" transform="matrix(-1 0 0 1 46 1)" fill="white"/>
<rect width="1" height="1" transform="matrix(-1 0 0 1 54 9)" fill="white"/>
<rect width="1" height="1" transform="matrix(-1 0 0 1 53 8)" fill="white"/>
<rect width="1" height="1" transform="matrix(-1 0 0 1 52 7)" fill="white"/>
<rect width="1" height="1" transform="matrix(-1 0 0 1 50 9)" fill="white"/>
<rect width="1" height="1" transform="matrix(-1 0 0 1 50 10)" fill="white"/>
<rect width="1" height="1" transform="matrix(-1 0 0 1 50 2)" fill="white"/>
<rect width="1" height="1" transform="matrix(-1 0 0 1 50 1)" fill="white"/>
<rect width="1" height="1" transform="matrix(-1 0 0 1 50 0)" fill="white"/>
<rect width="1" height="1" transform="matrix(-1 0 0 1 50 8)" fill="white"/>
<rect width="1" height="1" transform="matrix(-1 0 0 1 50 7)" fill="white"/>
<rect width="1" height="1" transform="matrix(-1 0 0 1 53 5)" fill="white"/>
<rect width="1" height="1" transform="matrix(-1 0 0 1 52 5)" fill="white"/>
<rect width="1" height="1" transform="matrix(-1 0 0 1 48 5)" fill="white"/>
<rect width="1" height="1" transform="matrix(-1 0 0 1 47 5)" fill="white"/>
<rect width="1" height="1" transform="matrix(-1 0 0 1 45 5)" fill="white"/>
<rect width="1" height="1" transform="matrix(-1 0 0 1 46 5)" fill="white"/>
<rect width="1" height="1" transform="matrix(-1 0 0 1 44 5)" fill="white"/>
<rect width="1" height="1" transform="matrix(-1 0 0 1 43 5)" fill="white"/>
<rect width="1" height="1" transform="matrix(-1 0 0 1 39 3)" fill="white"/>
<rect width="1" height="1" transform="matrix(-1 0 0 1 41 3)" fill="white"/>
<rect width="1" height="1" transform="matrix(-1 0 0 1 42 2)" fill="white"/>
<rect width="1" height="1" transform="matrix(-1 0 0 1 36 8)" fill="white"/>
<rect width="1" height="1" transform="matrix(-1 0 0 1 35 9)" fill="white"/>
<rect width="1" height="1" transform="matrix(-1 0 0 1 43 1)" fill="white"/>
<rect width="1" height="1" transform="matrix(-1 0 0 1 37 7)" fill="white"/>
<rect width="1" height="1" transform="matrix(-1 0 0 1 37 3)" fill="white"/>
<rect width="1" height="1" transform="matrix(-1 0 0 1 36 2)" fill="white"/>
<rect width="1" height="1" transform="matrix(-1 0 0 1 35 1)" fill="white"/>
<rect width="1" height="1" transform="matrix(-1 0 0 1 43 9)" fill="white"/>
<rect width="1" height="1" transform="matrix(-1 0 0 1 42 8)" fill="white"/>
<rect width="1" height="1" transform="matrix(-1 0 0 1 41 7)" fill="white"/>
<rect width="1" height="1" transform="matrix(-1 0 0 1 39 9)" fill="white"/>
<rect width="1" height="1" transform="matrix(-1 0 0 1 39 10)" fill="white"/>
<rect width="1" height="1" transform="matrix(-1 0 0 1 39 2)" fill="white"/>
<rect width="1" height="1" transform="matrix(-1 0 0 1 39 1)" fill="white"/>
<rect width="1" height="1" transform="matrix(-1 0 0 1 39 0)" fill="white"/>
<rect width="1" height="1" transform="matrix(-1 0 0 1 39 8)" fill="white"/>
<rect width="1" height="1" transform="matrix(-1 0 0 1 39 7)" fill="white"/>
<rect width="1" height="1" transform="matrix(-1 0 0 1 42 5)" fill="white"/>
<rect width="1" height="1" transform="matrix(-1 0 0 1 41 5)" fill="white"/>
<rect width="1" height="1" transform="matrix(-1 0 0 1 37 5)" fill="white"/>
<rect width="1" height="1" transform="matrix(-1 0 0 1 36 5)" fill="white"/>
<rect width="1" height="1" transform="matrix(-1 0 0 1 34 5)" fill="white"/>
<rect width="1" height="1" transform="matrix(-1 0 0 1 35 5)" fill="white"/>
<rect width="1" height="1" transform="matrix(-1 0 0 1 26 5)" fill="white"/>
<rect width="1" height="1" transform="matrix(-1 0 0 1 25 5)" fill="white"/>
<rect width="1" height="1" transform="matrix(-1 0 0 1 30 5)" fill="white"/>
<rect width="1" height="1" transform="matrix(-1 0 0 1 28 1)" fill="white"/>
<rect width="1" height="1" transform="matrix(-1 0 0 1 28 3)" fill="white"/>
<rect width="1" height="1" transform="matrix(-1 0 0 1 28 2)" fill="white"/>
<rect width="1" height="1" transform="matrix(-1 0 0 1 28 7)" fill="white"/>
<rect width="1" height="1" transform="matrix(-1 0 0 1 28 8)" fill="white"/>
<rect width="1" height="1" transform="matrix(-1 0 0 1 28 9)" fill="white"/>
<rect width="1" height="1" transform="matrix(-1 0 0 1 30 7)" fill="white"/>
<rect width="1" height="1" transform="matrix(-1 0 0 1 29 6)" fill="white"/>
<rect width="1" height="1" transform="matrix(-1 0 0 1 26 7)" fill="white"/>
<rect width="1" height="1" transform="matrix(-1 0 0 1 27 6)" fill="white"/>
<rect width="1" height="1" transform="matrix(-1 0 0 1 32 5)" fill="white"/>
<rect width="1" height="1" transform="matrix(-1 0 0 1 30 3)" fill="white"/>
<rect width="1" height="1" transform="matrix(-1 0 0 1 29 4)" fill="white"/>
<rect width="1" height="1" transform="matrix(-1 0 0 1 31 5)" fill="white"/>
<rect width="1" height="1" transform="matrix(-1 0 0 1 24 5)" fill="white"/>
<rect width="1" height="1" transform="matrix(-1 0 0 1 26 3)" fill="white"/>
<rect width="1" height="1" transform="matrix(-1 0 0 1 27 4)" fill="white"/>
<rect width="1" height="1" transform="matrix(-1 0 0 1 15 5)" fill="white"/>
<rect width="1" height="1" transform="matrix(-1 0 0 1 19 5)" fill="white"/>
<rect width="1" height="1" transform="matrix(-1 0 0 1 17 4)" fill="white"/>
<rect width="1" height="1" transform="matrix(-1 0 0 1 17 3)" fill="white"/>
<rect width="1" height="1" transform="matrix(-1 0 0 1 17 7)" fill="white"/>
<rect width="1" height="1" transform="matrix(-1 0 0 1 17 6)" fill="white"/>
<rect width="1" height="1" transform="matrix(-1 0 0 1 18 5)" fill="white"/>
<rect width="1" height="1" transform="matrix(-1 0 0 1 17 5)" fill="white"/>
<rect width="1" height="1" transform="matrix(-1 0 0 1 16 5)" fill="white"/>
<rect width="1" height="1" transform="matrix(-1 0 0 1 6 5)" fill="white"/>
</svg>
