<svg width="20" height="21" viewBox="0 0 20 21" fill="none" xmlns="http://www.w3.org/2000/svg">
<rect y="9.59091" width="1.81818" height="1.81818" fill="white"/>
<rect x="14.5455" y="9.59091" width="1.81818" height="1.81818" fill="white"/>
<rect x="1.81818" y="9.59091" width="1.81818" height="1.81818" fill="white"/>
<rect x="9.09091" y="5.95454" width="1.81818" height="1.81818" fill="white"/>
<rect x="5.45455" y="5.95454" width="1.81818" height="1.81818" fill="white"/>
<rect x="16.3636" y="16.8636" width="1.81818" height="1.81818" fill="white"/>
<rect x="3.63636" y="4.13637" width="1.81818" height="1.81818" fill="white"/>
<rect x="14.5455" y="15.0455" width="1.81818" height="1.81818" fill="white"/>
<rect x="1.81818" y="2.31818" width="1.81818" height="1.81818" fill="white"/>
<rect x="12.7273" y="13.2273" width="1.81818" height="1.81818" fill="white"/>
<rect x="12.7273" y="5.95454" width="1.81818" height="1.81818" fill="white"/>
<rect x="1.81818" y="16.8636" width="1.81818" height="1.81818" fill="white"/>
<rect x="14.5455" y="4.13637" width="1.81818" height="1.81818" fill="white"/>
<rect x="3.63636" y="15.0455" width="1.81818" height="1.81818" fill="white"/>
<rect x="16.3636" y="2.31818" width="1.81818" height="1.81818" fill="white"/>
<rect x="5.45455" y="13.2273" width="1.81818" height="1.81818" fill="white"/>
<rect x="9.09091" y="16.8636" width="1.81818" height="1.81818" fill="white"/>
<rect x="9.09091" y="18.6818" width="1.81818" height="1.81818" fill="white"/>
<rect x="9.09091" y="4.13637" width="1.81818" height="1.81818" fill="white"/>
<rect x="9.09091" y="15.0455" width="1.81818" height="1.81818" fill="white"/>
<rect x="9.09091" y="2.31818" width="1.81818" height="1.81818" fill="white"/>
<rect x="9.09091" y="0.5" width="1.81818" height="1.81818" fill="white"/>
<rect x="9.09091" y="13.2273" width="1.81818" height="1.81818" fill="white"/>
<rect x="16.3636" y="9.59091" width="1.81818" height="1.81818" fill="white"/>
<rect x="3.63636" y="9.59091" width="1.81818" height="1.81818" fill="white"/>
<rect x="18.1818" y="9.59091" width="1.81818" height="1.81818" fill="white"/>
<rect x="5.45455" y="9.59091" width="1.81818" height="1.81818" fill="white"/>
<rect x="12.7273" y="9.59091" width="1.81818" height="1.81818" fill="white"/>
</svg>
