<svg width="165" height="11" viewBox="0 0 165 11" fill="none" xmlns="http://www.w3.org/2000/svg">
<rect width="1" height="1" transform="matrix(-1 0 0 1 165 5)" fill="white"/>
<rect width="1" height="1" transform="matrix(-1 0 0 1 164 5)" fill="white"/>
<rect width="1" height="1" transform="matrix(-1 0 0 1 160 3)" fill="white"/>
<rect width="1" height="1" transform="matrix(-1 0 0 1 162 3)" fill="white"/>
<rect width="1" height="1" transform="matrix(-1 0 0 1 163 2)" fill="white"/>
<rect width="1" height="1" transform="matrix(-1 0 0 1 157 8)" fill="white"/>
<rect width="1" height="1" transform="matrix(-1 0 0 1 156 9)" fill="white"/>
<rect width="1" height="1" transform="matrix(-1 0 0 1 164 1)" fill="white"/>
<rect width="1" height="1" transform="matrix(-1 0 0 1 158 7)" fill="white"/>
<rect width="1" height="1" transform="matrix(-1 0 0 1 158 3)" fill="white"/>
<rect width="1" height="1" transform="matrix(-1 0 0 1 157 2)" fill="white"/>
<rect width="1" height="1" transform="matrix(-1 0 0 1 156 1)" fill="white"/>
<rect width="1" height="1" transform="matrix(-1 0 0 1 164 9)" fill="white"/>
<rect width="1" height="1" transform="matrix(-1 0 0 1 163 8)" fill="white"/>
<rect width="1" height="1" transform="matrix(-1 0 0 1 162 7)" fill="white"/>
<rect width="1" height="1" transform="matrix(-1 0 0 1 160 9)" fill="white"/>
<rect width="1" height="1" transform="matrix(-1 0 0 1 160 10)" fill="white"/>
<rect width="1" height="1" transform="matrix(-1 0 0 1 160 2)" fill="white"/>
<rect width="1" height="1" transform="matrix(-1 0 0 1 160 1)" fill="white"/>
<rect width="1" height="1" transform="matrix(-1 0 0 1 160 0)" fill="white"/>
<rect width="1" height="1" transform="matrix(-1 0 0 1 160 8)" fill="white"/>
<rect width="1" height="1" transform="matrix(-1 0 0 1 160 7)" fill="white"/>
<rect width="1" height="1" transform="matrix(-1 0 0 1 163 5)" fill="white"/>
<rect width="1" height="1" transform="matrix(-1 0 0 1 162 5)" fill="white"/>
<rect width="1" height="1" transform="matrix(-1 0 0 1 158 5)" fill="white"/>
<rect width="1" height="1" transform="matrix(-1 0 0 1 157 5)" fill="white"/>
<rect width="1" height="1" transform="matrix(-1 0 0 1 155 5)" fill="white"/>
<rect width="1" height="1" transform="matrix(-1 0 0 1 156 5)" fill="white"/>
<rect width="1" height="1" transform="matrix(-1 0 0 1 154 5)" fill="white"/>
<rect width="1" height="1" transform="matrix(-1 0 0 1 153 5)" fill="white"/>
<rect width="1" height="1" transform="matrix(-1 0 0 1 149 3)" fill="white"/>
<rect width="1" height="1" transform="matrix(-1 0 0 1 151 3)" fill="white"/>
<rect width="1" height="1" transform="matrix(-1 0 0 1 152 2)" fill="white"/>
<rect width="1" height="1" transform="matrix(-1 0 0 1 146 8)" fill="white"/>
<rect width="1" height="1" transform="matrix(-1 0 0 1 145 9)" fill="white"/>
<rect width="1" height="1" transform="matrix(-1 0 0 1 153 1)" fill="white"/>
<rect width="1" height="1" transform="matrix(-1 0 0 1 147 7)" fill="white"/>
<rect width="1" height="1" transform="matrix(-1 0 0 1 147 3)" fill="white"/>
<rect width="1" height="1" transform="matrix(-1 0 0 1 146 2)" fill="white"/>
<rect width="1" height="1" transform="matrix(-1 0 0 1 145 1)" fill="white"/>
<rect width="1" height="1" transform="matrix(-1 0 0 1 153 9)" fill="white"/>
<rect width="1" height="1" transform="matrix(-1 0 0 1 152 8)" fill="white"/>
<rect width="1" height="1" transform="matrix(-1 0 0 1 151 7)" fill="white"/>
<rect width="1" height="1" transform="matrix(-1 0 0 1 149 9)" fill="white"/>
<rect width="1" height="1" transform="matrix(-1 0 0 1 149 10)" fill="white"/>
<rect width="1" height="1" transform="matrix(-1 0 0 1 149 2)" fill="white"/>
<rect width="1" height="1" transform="matrix(-1 0 0 1 149 1)" fill="white"/>
<rect width="1" height="1" transform="matrix(-1 0 0 1 149 0)" fill="white"/>
<rect width="1" height="1" transform="matrix(-1 0 0 1 149 8)" fill="white"/>
<rect width="1" height="1" transform="matrix(-1 0 0 1 149 7)" fill="white"/>
<rect width="1" height="1" transform="matrix(-1 0 0 1 152 5)" fill="white"/>
<rect width="1" height="1" transform="matrix(-1 0 0 1 151 5)" fill="white"/>
<rect width="1" height="1" transform="matrix(-1 0 0 1 147 5)" fill="white"/>
<rect width="1" height="1" transform="matrix(-1 0 0 1 146 5)" fill="white"/>
<rect width="1" height="1" transform="matrix(-1 0 0 1 144 5)" fill="white"/>
<rect width="1" height="1" transform="matrix(-1 0 0 1 145 5)" fill="white"/>
<rect width="1" height="1" transform="matrix(-1 0 0 1 136 5)" fill="white"/>
<rect width="1" height="1" transform="matrix(-1 0 0 1 135 5)" fill="white"/>
<rect width="1" height="1" transform="matrix(-1 0 0 1 140 5)" fill="white"/>
<rect width="1" height="1" transform="matrix(-1 0 0 1 138 1)" fill="white"/>
<rect width="1" height="1" transform="matrix(-1 0 0 1 138 3)" fill="white"/>
<rect width="1" height="1" transform="matrix(-1 0 0 1 138 2)" fill="white"/>
<rect width="1" height="1" transform="matrix(-1 0 0 1 138 7)" fill="white"/>
<rect width="1" height="1" transform="matrix(-1 0 0 1 138 8)" fill="white"/>
<rect width="1" height="1" transform="matrix(-1 0 0 1 138 9)" fill="white"/>
<rect width="1" height="1" transform="matrix(-1 0 0 1 140 7)" fill="white"/>
<rect width="1" height="1" transform="matrix(-1 0 0 1 139 6)" fill="white"/>
<rect width="1" height="1" transform="matrix(-1 0 0 1 136 7)" fill="white"/>
<rect width="1" height="1" transform="matrix(-1 0 0 1 137 6)" fill="white"/>
<rect width="1" height="1" transform="matrix(-1 0 0 1 142 5)" fill="white"/>
<rect width="1" height="1" transform="matrix(-1 0 0 1 140 3)" fill="white"/>
<rect width="1" height="1" transform="matrix(-1 0 0 1 139 4)" fill="white"/>
<rect width="1" height="1" transform="matrix(-1 0 0 1 141 5)" fill="white"/>
<rect width="1" height="1" transform="matrix(-1 0 0 1 134 5)" fill="white"/>
<rect width="1" height="1" transform="matrix(-1 0 0 1 136 3)" fill="white"/>
<rect width="1" height="1" transform="matrix(-1 0 0 1 137 4)" fill="white"/>
<rect width="1" height="1" transform="matrix(-1 0 0 1 125 5)" fill="white"/>
<rect width="1" height="1" transform="matrix(-1 0 0 1 129 5)" fill="white"/>
<rect width="1" height="1" transform="matrix(-1 0 0 1 127 4)" fill="white"/>
<rect width="1" height="1" transform="matrix(-1 0 0 1 127 3)" fill="white"/>
<rect width="1" height="1" transform="matrix(-1 0 0 1 127 7)" fill="white"/>
<rect width="1" height="1" transform="matrix(-1 0 0 1 127 6)" fill="white"/>
<rect width="1" height="1" transform="matrix(-1 0 0 1 128 5)" fill="white"/>
<rect width="1" height="1" transform="matrix(-1 0 0 1 127 5)" fill="white"/>
<rect width="1" height="1" transform="matrix(-1 0 0 1 126 5)" fill="white"/>
<rect width="1" height="1" transform="matrix(-1 0 0 1 116 5)" fill="white"/>
<rect width="1" height="1" transform="matrix(-1 0 0 1 116 4)" fill="white"/>
<rect width="1" height="1" transform="matrix(-1 0 0 1 116 6)" fill="white"/>
<rect width="1" height="1" transform="matrix(-1 0 0 1 117 5)" fill="white"/>
<rect width="1" height="1" transform="matrix(-1 0 0 1 115 5)" fill="white"/>
<rect width="1" height="1" transform="matrix(-1 0 0 1 105 5)" fill="white"/>
<rect width="1" height="1" transform="matrix(-1 0 0 1 94 5)" fill="white"/>
<rect width="1" height="1" transform="matrix(-1 0 0 1 94 4)" fill="white"/>
<rect width="1" height="1" transform="matrix(-1 0 0 1 94 6)" fill="white"/>
<rect width="1" height="1" transform="matrix(-1 0 0 1 95 5)" fill="white"/>
<rect width="1" height="1" transform="matrix(-1 0 0 1 93 5)" fill="white"/>
<rect width="1" height="1" transform="matrix(-1 0 0 1 83 5)" fill="white"/>
<rect width="1" height="1" transform="matrix(-1 0 0 1 72 5)" fill="white"/>
<rect width="1" height="1" transform="matrix(-1 0 0 1 72 4)" fill="white"/>
<rect width="1" height="1" transform="matrix(-1 0 0 1 72 6)" fill="white"/>
<rect width="1" height="1" transform="matrix(-1 0 0 1 73 5)" fill="white"/>
<rect width="1" height="1" transform="matrix(-1 0 0 1 71 5)" fill="white"/>
<rect width="1" height="1" transform="matrix(-1 0 0 1 59 5)" fill="white"/>
<rect width="1" height="1" transform="matrix(-1 0 0 1 63 5)" fill="white"/>
<rect width="1" height="1" transform="matrix(-1 0 0 1 61 4)" fill="white"/>
<rect width="1" height="1" transform="matrix(-1 0 0 1 61 3)" fill="white"/>
<rect width="1" height="1" transform="matrix(-1 0 0 1 61 7)" fill="white"/>
<rect width="1" height="1" transform="matrix(-1 0 0 1 61 6)" fill="white"/>
<rect width="1" height="1" transform="matrix(-1 0 0 1 62 5)" fill="white"/>
<rect width="1" height="1" transform="matrix(-1 0 0 1 61 5)" fill="white"/>
<rect width="1" height="1" transform="matrix(-1 0 0 1 60 5)" fill="white"/>
<rect width="1" height="1" transform="matrix(-1 0 0 1 48 5)" fill="white"/>
<rect width="1" height="1" transform="matrix(-1 0 0 1 47 5)" fill="white"/>
<rect width="1" height="1" transform="matrix(-1 0 0 1 52 5)" fill="white"/>
<rect width="1" height="1" transform="matrix(-1 0 0 1 50 1)" fill="white"/>
<rect width="1" height="1" transform="matrix(-1 0 0 1 50 3)" fill="white"/>
<rect width="1" height="1" transform="matrix(-1 0 0 1 50 2)" fill="white"/>
<rect width="1" height="1" transform="matrix(-1 0 0 1 50 7)" fill="white"/>
<rect width="1" height="1" transform="matrix(-1 0 0 1 50 8)" fill="white"/>
<rect width="1" height="1" transform="matrix(-1 0 0 1 50 9)" fill="white"/>
<rect width="1" height="1" transform="matrix(-1 0 0 1 52 7)" fill="white"/>
<rect width="1" height="1" transform="matrix(-1 0 0 1 51 6)" fill="white"/>
<rect width="1" height="1" transform="matrix(-1 0 0 1 48 7)" fill="white"/>
<rect width="1" height="1" transform="matrix(-1 0 0 1 49 6)" fill="white"/>
<rect width="1" height="1" transform="matrix(-1 0 0 1 54 5)" fill="white"/>
<rect width="1" height="1" transform="matrix(-1 0 0 1 52 3)" fill="white"/>
<rect width="1" height="1" transform="matrix(-1 0 0 1 51 4)" fill="white"/>
<rect width="1" height="1" transform="matrix(-1 0 0 1 53 5)" fill="white"/>
<rect width="1" height="1" transform="matrix(-1 0 0 1 46 5)" fill="white"/>
<rect width="1" height="1" transform="matrix(-1 0 0 1 48 3)" fill="white"/>
<rect width="1" height="1" transform="matrix(-1 0 0 1 49 4)" fill="white"/>
<rect width="1" height="1" transform="matrix(-1 0 0 1 44 5)" fill="white"/>
<rect width="1" height="1" transform="matrix(-1 0 0 1 43 5)" fill="white"/>
<rect width="1" height="1" transform="matrix(-1 0 0 1 39 3)" fill="white"/>
<rect width="1" height="1" transform="matrix(-1 0 0 1 41 3)" fill="white"/>
<rect width="1" height="1" transform="matrix(-1 0 0 1 42 2)" fill="white"/>
<rect width="1" height="1" transform="matrix(-1 0 0 1 36 8)" fill="white"/>
<rect width="1" height="1" transform="matrix(-1 0 0 1 35 9)" fill="white"/>
<rect width="1" height="1" transform="matrix(-1 0 0 1 43 1)" fill="white"/>
<rect width="1" height="1" transform="matrix(-1 0 0 1 37 7)" fill="white"/>
<rect width="1" height="1" transform="matrix(-1 0 0 1 37 3)" fill="white"/>
<rect width="1" height="1" transform="matrix(-1 0 0 1 36 2)" fill="white"/>
<rect width="1" height="1" transform="matrix(-1 0 0 1 35 1)" fill="white"/>
<rect width="1" height="1" transform="matrix(-1 0 0 1 43 9)" fill="white"/>
<rect width="1" height="1" transform="matrix(-1 0 0 1 42 8)" fill="white"/>
<rect width="1" height="1" transform="matrix(-1 0 0 1 41 7)" fill="white"/>
<rect width="1" height="1" transform="matrix(-1 0 0 1 39 9)" fill="white"/>
<rect width="1" height="1" transform="matrix(-1 0 0 1 39 10)" fill="white"/>
<rect width="1" height="1" transform="matrix(-1 0 0 1 39 2)" fill="white"/>
<rect width="1" height="1" transform="matrix(-1 0 0 1 39 1)" fill="white"/>
<rect width="1" height="1" transform="matrix(-1 0 0 1 39 0)" fill="white"/>
<rect width="1" height="1" transform="matrix(-1 0 0 1 39 8)" fill="white"/>
<rect width="1" height="1" transform="matrix(-1 0 0 1 39 7)" fill="white"/>
<rect width="1" height="1" transform="matrix(-1 0 0 1 42 5)" fill="white"/>
<rect width="1" height="1" transform="matrix(-1 0 0 1 41 5)" fill="white"/>
<rect width="1" height="1" transform="matrix(-1 0 0 1 37 5)" fill="white"/>
<rect width="1" height="1" transform="matrix(-1 0 0 1 36 5)" fill="white"/>
<rect width="1" height="1" transform="matrix(-1 0 0 1 34 5)" fill="white"/>
<rect width="1" height="1" transform="matrix(-1 0 0 1 35 5)" fill="white"/>
<rect width="1" height="1" transform="matrix(-1 0 0 1 33 5)" fill="white"/>
<rect width="1" height="1" transform="matrix(-1 0 0 1 32 5)" fill="white"/>
<rect width="1" height="1" transform="matrix(-1 0 0 1 28 3)" fill="white"/>
<rect width="1" height="1" transform="matrix(-1 0 0 1 30 3)" fill="white"/>
<rect width="1" height="1" transform="matrix(-1 0 0 1 31 2)" fill="white"/>
<rect width="1" height="1" transform="matrix(-1 0 0 1 25 8)" fill="white"/>
<rect width="1" height="1" transform="matrix(-1 0 0 1 24 9)" fill="white"/>
<rect width="1" height="1" transform="matrix(-1 0 0 1 32 1)" fill="white"/>
<rect width="1" height="1" transform="matrix(-1 0 0 1 26 7)" fill="white"/>
<rect width="1" height="1" transform="matrix(-1 0 0 1 26 3)" fill="white"/>
<rect width="1" height="1" transform="matrix(-1 0 0 1 25 2)" fill="white"/>
<rect width="1" height="1" transform="matrix(-1 0 0 1 24 1)" fill="white"/>
<rect width="1" height="1" transform="matrix(-1 0 0 1 32 9)" fill="white"/>
<rect width="1" height="1" transform="matrix(-1 0 0 1 31 8)" fill="white"/>
<rect width="1" height="1" transform="matrix(-1 0 0 1 30 7)" fill="white"/>
<rect width="1" height="1" transform="matrix(-1 0 0 1 28 9)" fill="white"/>
<rect width="1" height="1" transform="matrix(-1 0 0 1 28 10)" fill="white"/>
<rect width="1" height="1" transform="matrix(-1 0 0 1 28 2)" fill="white"/>
<rect width="1" height="1" transform="matrix(-1 0 0 1 28 1)" fill="white"/>
<rect width="1" height="1" transform="matrix(-1 0 0 1 28 0)" fill="white"/>
<rect width="1" height="1" transform="matrix(-1 0 0 1 28 8)" fill="white"/>
<rect width="1" height="1" transform="matrix(-1 0 0 1 28 7)" fill="white"/>
<rect width="1" height="1" transform="matrix(-1 0 0 1 31 5)" fill="white"/>
<rect width="1" height="1" transform="matrix(-1 0 0 1 30 5)" fill="white"/>
<rect width="1" height="1" transform="matrix(-1 0 0 1 26 5)" fill="white"/>
<rect width="1" height="1" transform="matrix(-1 0 0 1 25 5)" fill="white"/>
<rect width="1" height="1" transform="matrix(-1 0 0 1 23 5)" fill="white"/>
<rect width="1" height="1" transform="matrix(-1 0 0 1 24 5)" fill="white"/>
<rect width="1" height="1" transform="matrix(-1 0 0 1 22 5)" fill="white"/>
<rect width="1" height="1" transform="matrix(-1 0 0 1 21 5)" fill="white"/>
<rect width="1" height="1" transform="matrix(-1 0 0 1 17 3)" fill="white"/>
<rect width="1" height="1" transform="matrix(-1 0 0 1 19 3)" fill="white"/>
<rect width="1" height="1" transform="matrix(-1 0 0 1 20 2)" fill="white"/>
<rect width="1" height="1" transform="matrix(-1 0 0 1 14 8)" fill="white"/>
<rect width="1" height="1" transform="matrix(-1 0 0 1 13 9)" fill="white"/>
<rect width="1" height="1" transform="matrix(-1 0 0 1 21 1)" fill="white"/>
<rect width="1" height="1" transform="matrix(-1 0 0 1 15 7)" fill="white"/>
<rect width="1" height="1" transform="matrix(-1 0 0 1 15 3)" fill="white"/>
<rect width="1" height="1" transform="matrix(-1 0 0 1 14 2)" fill="white"/>
<rect width="1" height="1" transform="matrix(-1 0 0 1 13 1)" fill="white"/>
<rect width="1" height="1" transform="matrix(-1 0 0 1 21 9)" fill="white"/>
<rect width="1" height="1" transform="matrix(-1 0 0 1 20 8)" fill="white"/>
<rect width="1" height="1" transform="matrix(-1 0 0 1 19 7)" fill="white"/>
<rect width="1" height="1" transform="matrix(-1 0 0 1 17 9)" fill="white"/>
<rect width="1" height="1" transform="matrix(-1 0 0 1 17 10)" fill="white"/>
<rect width="1" height="1" transform="matrix(-1 0 0 1 17 2)" fill="white"/>
<rect width="1" height="1" transform="matrix(-1 0 0 1 17 1)" fill="white"/>
<rect width="1" height="1" transform="matrix(-1 0 0 1 17 0)" fill="white"/>
<rect width="1" height="1" transform="matrix(-1 0 0 1 17 8)" fill="white"/>
<rect width="1" height="1" transform="matrix(-1 0 0 1 17 7)" fill="white"/>
<rect width="1" height="1" transform="matrix(-1 0 0 1 20 5)" fill="white"/>
<rect width="1" height="1" transform="matrix(-1 0 0 1 19 5)" fill="white"/>
<rect width="1" height="1" transform="matrix(-1 0 0 1 15 5)" fill="white"/>
<rect width="1" height="1" transform="matrix(-1 0 0 1 14 5)" fill="white"/>
<rect width="1" height="1" transform="matrix(-1 0 0 1 12 5)" fill="white"/>
<rect width="1" height="1" transform="matrix(-1 0 0 1 13 5)" fill="white"/>
<rect width="1" height="1" transform="matrix(-1 0 0 1 11 5)" fill="white"/>
<rect width="1" height="1" transform="matrix(-1 0 0 1 10 5)" fill="white"/>
<rect width="1" height="1" transform="matrix(-1 0 0 1 6 3)" fill="white"/>
<rect width="1" height="1" transform="matrix(-1 0 0 1 8.00001 3)" fill="white"/>
<rect width="1" height="1" transform="matrix(-1 0 0 1 9.00001 2)" fill="white"/>
<rect width="1" height="1" transform="matrix(-1 0 0 1 2.99999 8)" fill="white"/>
<rect width="1" height="1" transform="matrix(-1 0 0 1 1.99999 9)" fill="white"/>
<rect width="1" height="1" transform="matrix(-1 0 0 1 10 1)" fill="white"/>
<rect width="1" height="1" transform="matrix(-1 0 0 1 3.99999 7)" fill="white"/>
<rect width="1" height="1" transform="matrix(-1 0 0 1 3.99999 3)" fill="white"/>
<rect width="1" height="1" transform="matrix(-1 0 0 1 2.99999 2)" fill="white"/>
<rect width="1" height="1" transform="matrix(-1 0 0 1 1.99999 1)" fill="white"/>
<rect width="1" height="1" transform="matrix(-1 0 0 1 10 9)" fill="white"/>
<rect width="1" height="1" transform="matrix(-1 0 0 1 9.00001 8)" fill="white"/>
<rect width="1" height="1" transform="matrix(-1 0 0 1 8.00001 7)" fill="white"/>
<rect width="1" height="1" transform="matrix(-1 0 0 1 6 9)" fill="white"/>
<rect width="1" height="1" transform="matrix(-1 0 0 1 6 10)" fill="white"/>
<rect width="1" height="1" transform="matrix(-1 0 0 1 6 2)" fill="white"/>
<rect width="1" height="1" transform="matrix(-1 0 0 1 6 1)" fill="white"/>
<rect width="1" height="1" transform="matrix(-1 0 0 1 6 0)" fill="white"/>
<rect width="1" height="1" transform="matrix(-1 0 0 1 6 8)" fill="white"/>
<rect width="1" height="1" transform="matrix(-1 0 0 1 6 7)" fill="white"/>
<rect width="1" height="1" transform="matrix(-1 0 0 1 9.00001 5)" fill="white"/>
<rect width="1" height="1" transform="matrix(-1 0 0 1 8.00001 5)" fill="white"/>
<rect width="1" height="1" transform="matrix(-1 0 0 1 3.99999 5)" fill="white"/>
<rect width="1" height="1" transform="matrix(-1 0 0 1 2.99998 5)" fill="white"/>
<rect width="1" height="1" transform="matrix(-1 0 0 1 0.999985 5)" fill="white"/>
<rect width="1" height="1" transform="matrix(-1 0 0 1 1.99998 5)" fill="white"/>
</svg>
