<svg width="301" height="21" viewBox="0 0 301 21" fill="none" xmlns="http://www.w3.org/2000/svg">
<rect x="0.5" y="9.59091" width="1.81818" height="1.81818" fill="white"/>
<rect x="15.0455" y="9.59091" width="1.81818" height="1.81818" fill="white"/>
<rect x="2.31818" y="9.59091" width="1.81818" height="1.81818" fill="white"/>
<rect x="9.59091" y="5.95454" width="1.81818" height="1.81818" fill="white"/>
<rect x="5.95455" y="5.95454" width="1.81818" height="1.81818" fill="white"/>
<rect x="16.8636" y="16.8636" width="1.81818" height="1.81818" fill="white"/>
<rect x="4.13636" y="4.13637" width="1.81818" height="1.81818" fill="white"/>
<rect x="15.0455" y="15.0455" width="1.81818" height="1.81818" fill="white"/>
<rect x="2.31818" y="2.31818" width="1.81818" height="1.81818" fill="white"/>
<rect x="13.2273" y="13.2273" width="1.81818" height="1.81818" fill="white"/>
<rect x="13.2273" y="5.95454" width="1.81818" height="1.81818" fill="white"/>
<rect x="2.31818" y="16.8636" width="1.81818" height="1.81818" fill="white"/>
<rect x="15.0455" y="4.13637" width="1.81818" height="1.81818" fill="white"/>
<rect x="4.13636" y="15.0455" width="1.81818" height="1.81818" fill="white"/>
<rect x="16.8636" y="2.31818" width="1.81818" height="1.81818" fill="white"/>
<rect x="5.95455" y="13.2273" width="1.81818" height="1.81818" fill="white"/>
<rect x="9.59091" y="16.8636" width="1.81818" height="1.81818" fill="white"/>
<rect x="9.59091" y="18.6818" width="1.81818" height="1.81818" fill="white"/>
<rect x="9.59091" y="4.13637" width="1.81818" height="1.81818" fill="white"/>
<rect x="9.59091" y="15.0455" width="1.81818" height="1.81818" fill="white"/>
<rect x="9.59091" y="2.31818" width="1.81818" height="1.81818" fill="white"/>
<rect x="9.59091" y="0.5" width="1.81818" height="1.81818" fill="white"/>
<rect x="9.59091" y="13.2273" width="1.81818" height="1.81818" fill="white"/>
<rect x="16.8636" y="9.59091" width="1.81818" height="1.81818" fill="white"/>
<rect x="4.13636" y="9.59091" width="1.81818" height="1.81818" fill="white"/>
<rect x="18.6818" y="9.59091" width="1.81818" height="1.81818" fill="white"/>
<rect x="5.95455" y="9.59091" width="1.81818" height="1.81818" fill="white"/>
<rect x="13.2273" y="9.59091" width="1.81818" height="1.81818" fill="white"/>
<rect x="20.5" y="9.59091" width="1.81818" height="1.81818" fill="white"/>
<rect x="35.0455" y="9.59091" width="1.81818" height="1.81818" fill="white"/>
<rect x="22.3182" y="9.59091" width="1.81818" height="1.81818" fill="white"/>
<rect x="29.5909" y="5.95454" width="1.81818" height="1.81818" fill="white"/>
<rect x="25.9545" y="5.95454" width="1.81818" height="1.81818" fill="white"/>
<rect x="36.8636" y="16.8636" width="1.81818" height="1.81818" fill="white"/>
<rect x="24.1364" y="4.13637" width="1.81818" height="1.81818" fill="white"/>
<rect x="35.0455" y="15.0455" width="1.81818" height="1.81818" fill="white"/>
<rect x="22.3182" y="2.31818" width="1.81818" height="1.81818" fill="white"/>
<rect x="33.2273" y="13.2273" width="1.81818" height="1.81818" fill="white"/>
<rect x="33.2273" y="5.95454" width="1.81818" height="1.81818" fill="white"/>
<rect x="22.3182" y="16.8636" width="1.81818" height="1.81818" fill="white"/>
<rect x="35.0455" y="4.13637" width="1.81818" height="1.81818" fill="white"/>
<rect x="24.1364" y="15.0455" width="1.81818" height="1.81818" fill="white"/>
<rect x="36.8636" y="2.31818" width="1.81818" height="1.81818" fill="white"/>
<rect x="25.9545" y="13.2273" width="1.81818" height="1.81818" fill="white"/>
<rect x="29.5909" y="16.8636" width="1.81818" height="1.81818" fill="white"/>
<rect x="29.5909" y="18.6818" width="1.81818" height="1.81818" fill="white"/>
<rect x="29.5909" y="4.13637" width="1.81818" height="1.81818" fill="white"/>
<rect x="29.5909" y="15.0455" width="1.81818" height="1.81818" fill="white"/>
<rect x="29.5909" y="2.31818" width="1.81818" height="1.81818" fill="white"/>
<rect x="29.5909" y="0.5" width="1.81818" height="1.81818" fill="white"/>
<rect x="29.5909" y="13.2273" width="1.81818" height="1.81818" fill="white"/>
<rect x="36.8636" y="9.59091" width="1.81818" height="1.81818" fill="white"/>
<rect x="24.1364" y="9.59091" width="1.81818" height="1.81818" fill="white"/>
<rect x="38.6818" y="9.59091" width="1.81818" height="1.81818" fill="white"/>
<rect x="25.9545" y="9.59091" width="1.81818" height="1.81818" fill="white"/>
<rect x="33.2273" y="9.59091" width="1.81818" height="1.81818" fill="white"/>
<rect x="40.5" y="9.59091" width="1.81818" height="1.81818" fill="white"/>
<rect x="55.0455" y="9.59091" width="1.81818" height="1.81818" fill="white"/>
<rect x="42.3182" y="9.59091" width="1.81818" height="1.81818" fill="white"/>
<rect x="49.5909" y="5.95454" width="1.81818" height="1.81818" fill="white"/>
<rect x="45.9545" y="5.95454" width="1.81818" height="1.81818" fill="white"/>
<rect x="56.8636" y="16.8636" width="1.81818" height="1.81818" fill="white"/>
<rect x="44.1364" y="4.13637" width="1.81818" height="1.81818" fill="white"/>
<rect x="55.0455" y="15.0455" width="1.81818" height="1.81818" fill="white"/>
<rect x="42.3182" y="2.31818" width="1.81818" height="1.81818" fill="white"/>
<rect x="53.2273" y="13.2273" width="1.81818" height="1.81818" fill="white"/>
<rect x="53.2273" y="5.95454" width="1.81818" height="1.81818" fill="white"/>
<rect x="42.3182" y="16.8636" width="1.81818" height="1.81818" fill="white"/>
<rect x="55.0455" y="4.13637" width="1.81818" height="1.81818" fill="white"/>
<rect x="44.1364" y="15.0455" width="1.81818" height="1.81818" fill="white"/>
<rect x="56.8636" y="2.31818" width="1.81818" height="1.81818" fill="white"/>
<rect x="45.9545" y="13.2273" width="1.81818" height="1.81818" fill="white"/>
<rect x="49.5909" y="16.8636" width="1.81818" height="1.81818" fill="white"/>
<rect x="49.5909" y="18.6818" width="1.81818" height="1.81818" fill="white"/>
<rect x="49.5909" y="4.13637" width="1.81818" height="1.81818" fill="white"/>
<rect x="49.5909" y="15.0455" width="1.81818" height="1.81818" fill="white"/>
<rect x="49.5909" y="2.31818" width="1.81818" height="1.81818" fill="white"/>
<rect x="49.5909" y="0.5" width="1.81818" height="1.81818" fill="white"/>
<rect x="49.5909" y="13.2273" width="1.81818" height="1.81818" fill="white"/>
<rect x="56.8636" y="9.59091" width="1.81818" height="1.81818" fill="white"/>
<rect x="44.1364" y="9.59091" width="1.81818" height="1.81818" fill="white"/>
<rect x="58.6818" y="9.59091" width="1.81818" height="1.81818" fill="white"/>
<rect x="45.9545" y="9.59091" width="1.81818" height="1.81818" fill="white"/>
<rect x="53.2273" y="9.59091" width="1.81818" height="1.81818" fill="white"/>
<rect x="60.5" y="9.59091" width="1.81818" height="1.81818" fill="white"/>
<rect x="75.0455" y="9.59091" width="1.81818" height="1.81818" fill="white"/>
<rect x="62.3182" y="9.59091" width="1.81818" height="1.81818" fill="white"/>
<rect x="69.5909" y="5.95454" width="1.81818" height="1.81818" fill="white"/>
<rect x="65.9545" y="5.95454" width="1.81818" height="1.81818" fill="white"/>
<rect x="76.8636" y="16.8636" width="1.81818" height="1.81818" fill="white"/>
<rect x="64.1364" y="4.13637" width="1.81818" height="1.81818" fill="white"/>
<rect x="75.0455" y="15.0455" width="1.81818" height="1.81818" fill="white"/>
<rect x="62.3182" y="2.31818" width="1.81818" height="1.81818" fill="white"/>
<rect x="73.2273" y="13.2273" width="1.81818" height="1.81818" fill="white"/>
<rect x="73.2273" y="5.95454" width="1.81818" height="1.81818" fill="white"/>
<rect x="62.3182" y="16.8636" width="1.81818" height="1.81818" fill="white"/>
<rect x="75.0455" y="4.13637" width="1.81818" height="1.81818" fill="white"/>
<rect x="64.1364" y="15.0455" width="1.81818" height="1.81818" fill="white"/>
<rect x="76.8636" y="2.31818" width="1.81818" height="1.81818" fill="white"/>
<rect x="65.9545" y="13.2273" width="1.81818" height="1.81818" fill="white"/>
<rect x="69.5909" y="16.8636" width="1.81818" height="1.81818" fill="white"/>
<rect x="69.5909" y="18.6818" width="1.81818" height="1.81818" fill="white"/>
<rect x="69.5909" y="4.13637" width="1.81818" height="1.81818" fill="white"/>
<rect x="69.5909" y="15.0455" width="1.81818" height="1.81818" fill="white"/>
<rect x="69.5909" y="2.31818" width="1.81818" height="1.81818" fill="white"/>
<rect x="69.5909" y="13.2273" width="1.81818" height="1.81818" fill="white"/>
<rect x="76.8636" y="9.59091" width="1.81818" height="1.81818" fill="white"/>
<rect x="64.1364" y="9.59091" width="1.81818" height="1.81818" fill="white"/>
<rect x="78.6818" y="9.59091" width="1.81818" height="1.81818" fill="white"/>
<rect x="65.9545" y="9.59091" width="1.81818" height="1.81818" fill="white"/>
<rect x="73.2273" y="9.59091" width="1.81818" height="1.81818" fill="white"/>
<rect x="80.5" y="9.59091" width="1.81818" height="1.81818" fill="white"/>
<rect x="95.0455" y="9.59091" width="1.81818" height="1.81818" fill="white"/>
<rect x="82.3182" y="9.59091" width="1.81818" height="1.81818" fill="white"/>
<rect x="89.5909" y="5.95454" width="1.81818" height="1.81818" fill="white"/>
<rect x="85.9545" y="5.95454" width="1.81818" height="1.81818" fill="white"/>
<rect x="96.8636" y="16.8636" width="1.81818" height="1.81818" fill="white"/>
<rect x="84.1364" y="4.13637" width="1.81818" height="1.81818" fill="white"/>
<rect x="95.0455" y="15.0455" width="1.81818" height="1.81818" fill="white"/>
<rect x="82.3182" y="2.31818" width="1.81818" height="1.81818" fill="white"/>
<rect x="93.2273" y="13.2273" width="1.81818" height="1.81818" fill="white"/>
<rect x="93.2273" y="5.95454" width="1.81818" height="1.81818" fill="white"/>
<rect x="82.3182" y="16.8636" width="1.81818" height="1.81818" fill="white"/>
<rect x="95.0455" y="4.13637" width="1.81818" height="1.81818" fill="white"/>
<rect x="84.1364" y="15.0455" width="1.81818" height="1.81818" fill="white"/>
<rect x="85.9545" y="13.2273" width="1.81818" height="1.81818" fill="white"/>
<rect x="89.5909" y="16.8636" width="1.81818" height="1.81818" fill="white"/>
<rect x="89.5909" y="18.6818" width="1.81818" height="1.81818" fill="white"/>
<rect x="89.5909" y="15.0455" width="1.81818" height="1.81818" fill="white"/>
<rect x="89.5909" y="13.2273" width="1.81818" height="1.81818" fill="white"/>
<rect x="96.8636" y="9.59091" width="1.81818" height="1.81818" fill="white"/>
<rect x="84.1364" y="9.59091" width="1.81818" height="1.81818" fill="white"/>
<rect x="98.6818" y="9.59091" width="1.81818" height="1.81818" fill="white"/>
<rect x="85.9545" y="9.59091" width="1.81818" height="1.81818" fill="white"/>
<rect x="93.2273" y="9.59091" width="1.81818" height="1.81818" fill="white"/>
<rect x="100.5" y="9.59091" width="1.81818" height="1.81818" fill="white"/>
<rect x="115.045" y="9.59091" width="1.81818" height="1.81818" fill="white"/>
<rect x="102.318" y="9.59091" width="1.81818" height="1.81818" fill="white"/>
<rect x="109.591" y="5.95454" width="1.81818" height="1.81818" fill="white"/>
<rect x="105.955" y="5.95454" width="1.81818" height="1.81818" fill="white"/>
<rect x="116.864" y="16.8636" width="1.81818" height="1.81818" fill="white"/>
<rect x="104.136" y="4.13637" width="1.81818" height="1.81818" fill="white"/>
<rect x="115.045" y="15.0455" width="1.81818" height="1.81818" fill="white"/>
<rect x="102.318" y="2.31818" width="1.81818" height="1.81818" fill="white"/>
<rect x="113.227" y="13.2273" width="1.81818" height="1.81818" fill="white"/>
<rect x="113.227" y="5.95454" width="1.81818" height="1.81818" fill="white"/>
<rect x="102.318" y="16.8636" width="1.81818" height="1.81818" fill="white"/>
<rect x="104.136" y="15.0455" width="1.81818" height="1.81818" fill="white"/>
<rect x="105.955" y="13.2273" width="1.81818" height="1.81818" fill="white"/>
<rect x="109.591" y="16.8636" width="1.81818" height="1.81818" fill="white"/>
<rect x="109.591" y="18.6818" width="1.81818" height="1.81818" fill="white"/>
<rect x="109.591" y="4.13637" width="1.81818" height="1.81818" fill="white"/>
<rect x="109.591" y="2.31818" width="1.81818" height="1.81818" fill="white"/>
<rect x="109.591" y="15.0455" width="1.81818" height="1.81818" fill="white"/>
<rect x="109.591" y="13.2273" width="1.81818" height="1.81818" fill="white"/>
<rect x="116.864" y="9.59091" width="1.81818" height="1.81818" fill="white"/>
<rect x="104.136" y="9.59091" width="1.81818" height="1.81818" fill="white"/>
<rect x="105.955" y="9.59091" width="1.81818" height="1.81818" fill="white"/>
<rect x="113.227" y="9.59091" width="1.81818" height="1.81818" fill="white"/>
<rect x="120.5" y="9.59091" width="1.81818" height="1.81818" fill="white"/>
<rect x="122.318" y="9.59091" width="1.81818" height="1.81818" fill="white"/>
<rect x="129.591" y="5.95454" width="1.81818" height="1.81818" fill="white"/>
<rect x="125.955" y="5.95454" width="1.81818" height="1.81818" fill="white"/>
<rect x="124.136" y="4.13637" width="1.81818" height="1.81818" fill="white"/>
<rect x="135.045" y="15.0455" width="1.81818" height="1.81818" fill="white"/>
<rect x="122.318" y="2.31818" width="1.81818" height="1.81818" fill="white"/>
<rect x="133.227" y="13.2273" width="1.81818" height="1.81818" fill="white"/>
<rect x="133.227" y="5.95454" width="1.81818" height="1.81818" fill="white"/>
<rect x="135.045" y="4.13637" width="1.81818" height="1.81818" fill="white"/>
<rect x="122.318" y="16.8636" width="1.81818" height="1.81818" fill="white"/>
<rect x="124.136" y="15.0455" width="1.81818" height="1.81818" fill="white"/>
<rect x="125.955" y="13.2273" width="1.81818" height="1.81818" fill="white"/>
<rect x="129.591" y="16.8636" width="1.81818" height="1.81818" fill="white"/>
<rect x="129.591" y="18.6818" width="1.81818" height="1.81818" fill="white"/>
<rect x="129.591" y="4.13637" width="1.81818" height="1.81818" fill="white"/>
<rect x="129.591" y="2.31818" width="1.81818" height="1.81818" fill="white"/>
<rect x="129.591" y="0.5" width="1.81818" height="1.81818" fill="white"/>
<rect x="129.591" y="15.0455" width="1.81818" height="1.81818" fill="white"/>
<rect x="129.591" y="13.2273" width="1.81818" height="1.81818" fill="white"/>
<rect x="124.136" y="9.59091" width="1.81818" height="1.81818" fill="white"/>
<rect x="125.955" y="9.59091" width="1.81818" height="1.81818" fill="white"/>
<rect x="133.227" y="9.59091" width="1.81818" height="1.81818" fill="white"/>
<rect x="140.5" y="9.59091" width="1.81818" height="1.81818" fill="white"/>
<rect x="155.045" y="9.59091" width="1.81818" height="1.81818" fill="white"/>
<rect x="156.864" y="9.59091" width="1.81818" height="1.81818" fill="white"/>
<rect x="142.318" y="9.59091" width="1.81818" height="1.81818" fill="white"/>
<rect x="149.591" y="5.95454" width="1.81818" height="1.81818" fill="white"/>
<rect x="145.955" y="5.95454" width="1.81818" height="1.81818" fill="white"/>
<rect x="144.136" y="4.13637" width="1.81818" height="1.81818" fill="white"/>
<rect x="142.318" y="2.31818" width="1.81818" height="1.81818" fill="white"/>
<rect x="153.227" y="13.2273" width="1.81818" height="1.81818" fill="white"/>
<rect x="153.227" y="5.95454" width="1.81818" height="1.81818" fill="white"/>
<rect x="155.045" y="4.13637" width="1.81818" height="1.81818" fill="white"/>
<rect x="156.864" y="2.31818" width="1.81818" height="1.81818" fill="white"/>
<rect x="142.318" y="16.8636" width="1.81818" height="1.81818" fill="white"/>
<rect x="144.136" y="15.0455" width="1.81818" height="1.81818" fill="white"/>
<rect x="145.955" y="13.2273" width="1.81818" height="1.81818" fill="white"/>
<rect x="149.591" y="16.8636" width="1.81818" height="1.81818" fill="white"/>
<rect x="149.591" y="4.13637" width="1.81818" height="1.81818" fill="white"/>
<rect x="149.591" y="2.31818" width="1.81818" height="1.81818" fill="white"/>
<rect x="149.591" y="0.5" width="1.81818" height="1.81818" fill="white"/>
<rect x="149.591" y="15.0455" width="1.81818" height="1.81818" fill="white"/>
<rect x="149.591" y="13.2273" width="1.81818" height="1.81818" fill="white"/>
<rect x="144.136" y="9.59091" width="1.81818" height="1.81818" fill="white"/>
<rect x="145.955" y="9.59091" width="1.81818" height="1.81818" fill="white"/>
<rect x="153.227" y="9.59091" width="1.81818" height="1.81818" fill="white"/>
<rect x="160.5" y="9.59091" width="1.81818" height="1.81818" fill="white"/>
<rect x="175.045" y="9.59091" width="1.81818" height="1.81818" fill="white"/>
<rect x="176.864" y="9.59091" width="1.81818" height="1.81818" fill="white"/>
<rect x="178.682" y="9.59091" width="1.81818" height="1.81818" fill="white"/>
<rect x="162.318" y="9.59091" width="1.81818" height="1.81818" fill="white"/>
<rect x="169.591" y="5.95454" width="1.81818" height="1.81818" fill="white"/>
<rect x="165.955" y="5.95454" width="1.81818" height="1.81818" fill="white"/>
<rect x="164.136" y="4.13637" width="1.81818" height="1.81818" fill="white"/>
<rect x="162.318" y="2.31818" width="1.81818" height="1.81818" fill="white"/>
<rect x="173.227" y="13.2273" width="1.81818" height="1.81818" fill="white"/>
<rect x="175.045" y="15.0455" width="1.81818" height="1.81818" fill="white"/>
<rect x="173.227" y="5.95454" width="1.81818" height="1.81818" fill="white"/>
<rect x="175.045" y="4.13637" width="1.81818" height="1.81818" fill="white"/>
<rect x="176.864" y="2.31818" width="1.81818" height="1.81818" fill="white"/>
<rect x="164.136" y="15.0455" width="1.81818" height="1.81818" fill="white"/>
<rect x="165.955" y="13.2273" width="1.81818" height="1.81818" fill="white"/>
<rect x="169.591" y="4.13637" width="1.81818" height="1.81818" fill="white"/>
<rect x="169.591" y="2.31818" width="1.81818" height="1.81818" fill="white"/>
<rect x="169.591" y="0.5" width="1.81818" height="1.81818" fill="white"/>
<rect x="169.591" y="13.2273" width="1.81818" height="1.81818" fill="white"/>
<rect x="164.136" y="9.59091" width="1.81818" height="1.81818" fill="white"/>
<rect x="165.955" y="9.59091" width="1.81818" height="1.81818" fill="white"/>
<rect x="173.227" y="9.59091" width="1.81818" height="1.81818" fill="white"/>
<rect x="195.045" y="9.59091" width="1.81818" height="1.81818" fill="white"/>
<rect x="196.864" y="9.59091" width="1.81818" height="1.81818" fill="white"/>
<rect x="198.682" y="9.59091" width="1.81818" height="1.81818" fill="white"/>
<rect x="182.318" y="9.59091" width="1.81818" height="1.81818" fill="white"/>
<rect x="189.591" y="5.95454" width="1.81818" height="1.81818" fill="white"/>
<rect x="185.955" y="5.95454" width="1.81818" height="1.81818" fill="white"/>
<rect x="184.136" y="4.13637" width="1.81818" height="1.81818" fill="white"/>
<rect x="182.318" y="2.31818" width="1.81818" height="1.81818" fill="white"/>
<rect x="193.227" y="13.2273" width="1.81818" height="1.81818" fill="white"/>
<rect x="195.045" y="15.0455" width="1.81818" height="1.81818" fill="white"/>
<rect x="196.864" y="16.8636" width="1.81818" height="1.81818" fill="white"/>
<rect x="193.227" y="5.95454" width="1.81818" height="1.81818" fill="white"/>
<rect x="195.045" y="4.13637" width="1.81818" height="1.81818" fill="white"/>
<rect x="196.864" y="2.31818" width="1.81818" height="1.81818" fill="white"/>
<rect x="185.955" y="13.2273" width="1.81818" height="1.81818" fill="white"/>
<rect x="189.591" y="4.13637" width="1.81818" height="1.81818" fill="white"/>
<rect x="189.591" y="2.31818" width="1.81818" height="1.81818" fill="white"/>
<rect x="189.591" y="0.5" width="1.81818" height="1.81818" fill="white"/>
<rect x="189.591" y="15.0455" width="1.81818" height="1.81818" fill="white"/>
<rect x="189.591" y="16.8636" width="1.81818" height="1.81818" fill="white"/>
<rect x="189.591" y="13.2273" width="1.81818" height="1.81818" fill="white"/>
<rect x="184.136" y="9.59091" width="1.81818" height="1.81818" fill="white"/>
<rect x="185.955" y="9.59091" width="1.81818" height="1.81818" fill="white"/>
<rect x="193.227" y="9.59091" width="1.81818" height="1.81818" fill="white"/>
<rect x="215.045" y="9.59091" width="1.81818" height="1.81818" fill="white"/>
<rect x="216.864" y="9.59091" width="1.81818" height="1.81818" fill="white"/>
<rect x="218.682" y="9.59091" width="1.81818" height="1.81818" fill="white"/>
<rect x="209.591" y="5.95454" width="1.81818" height="1.81818" fill="white"/>
<rect x="205.955" y="5.95454" width="1.81818" height="1.81818" fill="white"/>
<rect x="204.136" y="4.13637" width="1.81818" height="1.81818" fill="white"/>
<rect x="213.227" y="13.2273" width="1.81818" height="1.81818" fill="white"/>
<rect x="215.045" y="15.0455" width="1.81818" height="1.81818" fill="white"/>
<rect x="216.864" y="16.8636" width="1.81818" height="1.81818" fill="white"/>
<rect x="213.227" y="5.95454" width="1.81818" height="1.81818" fill="white"/>
<rect x="215.045" y="4.13637" width="1.81818" height="1.81818" fill="white"/>
<rect x="216.864" y="2.31818" width="1.81818" height="1.81818" fill="white"/>
<rect x="204.136" y="15.0455" width="1.81818" height="1.81818" fill="white"/>
<rect x="205.955" y="13.2273" width="1.81818" height="1.81818" fill="white"/>
<rect x="209.591" y="4.13637" width="1.81818" height="1.81818" fill="white"/>
<rect x="209.591" y="2.31818" width="1.81818" height="1.81818" fill="white"/>
<rect x="209.591" y="0.5" width="1.81818" height="1.81818" fill="white"/>
<rect x="209.591" y="15.0455" width="1.81818" height="1.81818" fill="white"/>
<rect x="209.591" y="16.8636" width="1.81818" height="1.81818" fill="white"/>
<rect x="209.591" y="18.6818" width="1.81818" height="1.81818" fill="white"/>
<rect x="209.591" y="13.2273" width="1.81818" height="1.81818" fill="white"/>
<rect x="205.955" y="9.59091" width="1.81818" height="1.81818" fill="white"/>
<rect x="213.227" y="9.59091" width="1.81818" height="1.81818" fill="white"/>
<rect x="235.045" y="9.59091" width="1.81818" height="1.81818" fill="white"/>
<rect x="236.864" y="9.59091" width="1.81818" height="1.81818" fill="white"/>
<rect x="238.682" y="9.59091" width="1.81818" height="1.81818" fill="white"/>
<rect x="229.591" y="5.95454" width="1.81818" height="1.81818" fill="white"/>
<rect x="225.955" y="5.95454" width="1.81818" height="1.81818" fill="white"/>
<rect x="233.227" y="13.2273" width="1.81818" height="1.81818" fill="white"/>
<rect x="235.045" y="15.0455" width="1.81818" height="1.81818" fill="white"/>
<rect x="236.864" y="16.8636" width="1.81818" height="1.81818" fill="white"/>
<rect x="233.227" y="5.95454" width="1.81818" height="1.81818" fill="white"/>
<rect x="235.045" y="4.13637" width="1.81818" height="1.81818" fill="white"/>
<rect x="236.864" y="2.31818" width="1.81818" height="1.81818" fill="white"/>
<rect x="224.136" y="15.0455" width="1.81818" height="1.81818" fill="white"/>
<rect x="222.318" y="16.8636" width="1.81818" height="1.81818" fill="white"/>
<rect x="225.955" y="13.2273" width="1.81818" height="1.81818" fill="white"/>
<rect x="229.591" y="4.13637" width="1.81818" height="1.81818" fill="white"/>
<rect x="229.591" y="2.31818" width="1.81818" height="1.81818" fill="white"/>
<rect x="229.591" y="15.0455" width="1.81818" height="1.81818" fill="white"/>
<rect x="229.591" y="16.8636" width="1.81818" height="1.81818" fill="white"/>
<rect x="229.591" y="18.6818" width="1.81818" height="1.81818" fill="white"/>
<rect x="229.591" y="13.2273" width="1.81818" height="1.81818" fill="white"/>
<rect x="224.136" y="9.59091" width="1.81818" height="1.81818" fill="white"/>
<rect x="222.318" y="9.59091" width="1.81818" height="1.81818" fill="white"/>
<rect x="225.955" y="9.59091" width="1.81818" height="1.81818" fill="white"/>
<rect x="233.227" y="9.59091" width="1.81818" height="1.81818" fill="white"/>
<rect x="255.045" y="9.59091" width="1.81818" height="1.81818" fill="white"/>
<rect x="256.864" y="9.59091" width="1.81818" height="1.81818" fill="white"/>
<rect x="258.682" y="9.59091" width="1.81818" height="1.81818" fill="white"/>
<rect x="249.591" y="5.95454" width="1.81818" height="1.81818" fill="white"/>
<rect x="245.955" y="5.95454" width="1.81818" height="1.81818" fill="white"/>
<rect x="244.136" y="4.13637" width="1.81818" height="1.81818" fill="white"/>
<rect x="253.227" y="13.2273" width="1.81818" height="1.81818" fill="white"/>
<rect x="255.045" y="15.0455" width="1.81818" height="1.81818" fill="white"/>
<rect x="256.864" y="16.8636" width="1.81818" height="1.81818" fill="white"/>
<rect x="253.227" y="5.95454" width="1.81818" height="1.81818" fill="white"/>
<rect x="255.045" y="4.13637" width="1.81818" height="1.81818" fill="white"/>
<rect x="244.136" y="15.0455" width="1.81818" height="1.81818" fill="white"/>
<rect x="242.318" y="16.8636" width="1.81818" height="1.81818" fill="white"/>
<rect x="245.955" y="13.2273" width="1.81818" height="1.81818" fill="white"/>
<rect x="249.591" y="15.0455" width="1.81818" height="1.81818" fill="white"/>
<rect x="249.591" y="16.8636" width="1.81818" height="1.81818" fill="white"/>
<rect x="249.591" y="18.6818" width="1.81818" height="1.81818" fill="white"/>
<rect x="249.591" y="13.2273" width="1.81818" height="1.81818" fill="white"/>
<rect x="244.136" y="9.59091" width="1.81818" height="1.81818" fill="white"/>
<rect x="242.318" y="9.59091" width="1.81818" height="1.81818" fill="white"/>
<rect x="240.5" y="9.59091" width="1.81818" height="1.81818" fill="white"/>
<rect x="245.955" y="9.59091" width="1.81818" height="1.81818" fill="white"/>
<rect x="253.227" y="9.59091" width="1.81818" height="1.81818" fill="white"/>
<rect x="275.045" y="9.59091" width="1.81818" height="1.81818" fill="white"/>
<rect x="276.864" y="9.59091" width="1.81818" height="1.81818" fill="white"/>
<rect x="278.682" y="9.59091" width="1.81818" height="1.81818" fill="white"/>
<rect x="269.591" y="5.95454" width="1.81818" height="1.81818" fill="white"/>
<rect x="265.955" y="5.95454" width="1.81818" height="1.81818" fill="white"/>
<rect x="264.136" y="4.13637" width="1.81818" height="1.81818" fill="white"/>
<rect x="262.318" y="2.31818" width="1.81818" height="1.81818" fill="white"/>
<rect x="273.227" y="13.2273" width="1.81818" height="1.81818" fill="white"/>
<rect x="275.045" y="15.0455" width="1.81818" height="1.81818" fill="white"/>
<rect x="276.864" y="16.8636" width="1.81818" height="1.81818" fill="white"/>
<rect x="273.227" y="5.95454" width="1.81818" height="1.81818" fill="white"/>
<rect x="275.045" y="4.13637" width="1.81818" height="1.81818" fill="white"/>
<rect x="276.864" y="2.31818" width="1.81818" height="1.81818" fill="white"/>
<rect x="264.136" y="15.0455" width="1.81818" height="1.81818" fill="white"/>
<rect x="262.318" y="16.8636" width="1.81818" height="1.81818" fill="white"/>
<rect x="265.955" y="13.2273" width="1.81818" height="1.81818" fill="white"/>
<rect x="269.591" y="4.13637" width="1.81818" height="1.81818" fill="white"/>
<rect x="269.591" y="2.31818" width="1.81818" height="1.81818" fill="white"/>
<rect x="269.591" y="15.0455" width="1.81818" height="1.81818" fill="white"/>
<rect x="269.591" y="16.8636" width="1.81818" height="1.81818" fill="white"/>
<rect x="269.591" y="18.6818" width="1.81818" height="1.81818" fill="white"/>
<rect x="269.591" y="13.2273" width="1.81818" height="1.81818" fill="white"/>
<rect x="264.136" y="9.59091" width="1.81818" height="1.81818" fill="white"/>
<rect x="262.318" y="9.59091" width="1.81818" height="1.81818" fill="white"/>
<rect x="260.5" y="9.59091" width="1.81818" height="1.81818" fill="white"/>
<rect x="265.955" y="9.59091" width="1.81818" height="1.81818" fill="white"/>
<rect x="273.227" y="9.59091" width="1.81818" height="1.81818" fill="white"/>
<rect x="295.045" y="9.59091" width="1.81818" height="1.81818" fill="white"/>
<rect x="296.864" y="9.59091" width="1.81818" height="1.81818" fill="white"/>
<rect x="298.682" y="9.59091" width="1.81818" height="1.81818" fill="white"/>
<rect x="289.591" y="5.95454" width="1.81818" height="1.81818" fill="white"/>
<rect x="285.955" y="5.95454" width="1.81818" height="1.81818" fill="white"/>
<rect x="284.136" y="4.13637" width="1.81818" height="1.81818" fill="white"/>
<rect x="282.318" y="2.31818" width="1.81818" height="1.81818" fill="white"/>
<rect x="293.227" y="13.2273" width="1.81818" height="1.81818" fill="white"/>
<rect x="295.045" y="15.0455" width="1.81818" height="1.81818" fill="white"/>
<rect x="296.864" y="16.8636" width="1.81818" height="1.81818" fill="white"/>
<rect x="293.227" y="5.95454" width="1.81818" height="1.81818" fill="white"/>
<rect x="295.045" y="4.13637" width="1.81818" height="1.81818" fill="white"/>
<rect x="296.864" y="2.31818" width="1.81818" height="1.81818" fill="white"/>
<rect x="284.136" y="15.0455" width="1.81818" height="1.81818" fill="white"/>
<rect x="282.318" y="16.8636" width="1.81818" height="1.81818" fill="white"/>
<rect x="285.955" y="13.2273" width="1.81818" height="1.81818" fill="white"/>
<rect x="289.591" y="4.13637" width="1.81818" height="1.81818" fill="white"/>
<rect x="289.591" y="2.31818" width="1.81818" height="1.81818" fill="white"/>
<rect x="289.591" y="0.5" width="1.81818" height="1.81818" fill="white"/>
<rect x="289.591" y="15.0455" width="1.81818" height="1.81818" fill="white"/>
<rect x="289.591" y="16.8636" width="1.81818" height="1.81818" fill="white"/>
<rect x="289.591" y="18.6818" width="1.81818" height="1.81818" fill="white"/>
<rect x="289.591" y="13.2273" width="1.81818" height="1.81818" fill="white"/>
<rect x="284.136" y="9.59091" width="1.81818" height="1.81818" fill="white"/>
<rect x="282.318" y="9.59091" width="1.81818" height="1.81818" fill="white"/>
<rect x="280.5" y="9.59091" width="1.81818" height="1.81818" fill="white"/>
<rect x="285.955" y="9.59091" width="1.81818" height="1.81818" fill="white"/>
<rect x="293.227" y="9.59091" width="1.81818" height="1.81818" fill="white"/>
</svg>
