<svg width="24" height="24" viewBox="0 0 24 24" fill="none" xmlns="http://www.w3.org/2000/svg">
<rect y="10.9091" width="2.18182" height="2.18182" fill="#000" />
<rect x="17.4545" y="10.9091" width="2.18182" height="2.18182" fill="#000" />
<rect x="2.18182" y="10.9091" width="2.18182" height="2.18182" fill="#000" />
<rect x="10.9091" y="6.54545" width="2.18182" height="2.18182" fill="#000" />
<rect x="6.54546" y="6.54545" width="2.18182" height="2.18182" fill="#000" />
<rect x="19.6364" y="19.6364" width="2.18182" height="2.18182" fill="#000" />
<rect x="4.36364" y="4.36363" width="2.18182" height="2.18182" fill="#000" />
<rect x="17.4545" y="17.4546" width="2.18182" height="2.18182" fill="#000" />
<rect x="2.18182" y="2.18181" width="2.18182" height="2.18182" fill="#000" />
<rect x="15.2727" y="15.2727" width="2.18182" height="2.18182" fill="#000" />
<rect x="15.2727" y="6.54545" width="2.18182" height="2.18182" fill="#000" />
<rect x="2.18182" y="19.6364" width="2.18182" height="2.18182" fill="#000" />
<rect x="17.4545" y="4.36363" width="2.18182" height="2.18182" fill="#000" />
<rect x="4.36364" y="17.4546" width="2.18182" height="2.18182" fill="#000" />
<rect x="19.6364" y="2.18182" width="2.18182" height="2.18182" fill="#000" />
<rect x="6.54546" y="15.2727" width="2.18182" height="2.18182" fill="#000" />
<rect x="10.9091" y="19.6364" width="2.18182" height="2.18182" fill="#000" />
<rect x="10.9091" y="21.8182" width="2.18182" height="2.18182" fill="#000" />
<rect x="10.9091" y="4.36363" width="2.18182" height="2.18182" fill="#000" />
<rect x="10.9091" y="17.4546" width="2.18182" height="2.18182" fill="#000" />
<rect x="10.9091" y="2.18181" width="2.18182" height="2.18182" fill="#000" />
<rect x="10.9091" y="-3.8147e-06" width="2.18182" height="2.18182" fill="#000" />
<rect x="10.9091" y="15.2727" width="2.18182" height="2.18182" fill="#000" />
<rect x="19.6364" y="10.9091" width="2.18182" height="2.18182" fill="#000" />
<rect x="4.36364" y="10.9091" width="2.18182" height="2.18182" fill="#000" />
<rect x="21.8182" y="10.9091" width="2.18182" height="2.18182" fill="#000" />
<rect x="6.54546" y="10.9091" width="2.18182" height="2.18182" fill="#000" />
<rect x="15.2727" y="10.9091" width="2.18182" height="2.18182" fill="#000" />
</svg> 